<svg width="137" height="31" viewBox="0 0 137 31" fill="none" xmlns="http://www.w3.org/2000/svg">
<path d="M29.5 15.2744C29.5 23.3126 23.0065 29.826 15 29.826C6.99349 29.826 0.5 23.3126 0.5 15.2744C0.5 7.23613 6.99349 0.722778 15 0.722778C23.0065 0.722778 29.5 7.23613 29.5 15.2744Z" stroke="#CDCDCD"/>
<ellipse cx="15" cy="15.2744" rx="6.75" ry="6.77322" fill="#68B738"/>
<path d="M46.008 9.28347H53.144V22.2435H51.336V10.5795H47.816V22.2435H46.008V9.28347ZM58.4763 22.3875C57.2069 22.3875 56.2949 22.0301 55.7403 21.3155C55.1963 20.5901 54.9243 19.5448 54.9243 18.1795V13.2675C54.9243 11.9235 55.2016 10.9048 55.7563 10.2115C56.3109 9.51814 57.2176 9.17147 58.4763 9.17147C59.7349 9.17147 60.6363 9.52347 61.1803 10.2275C61.7349 10.9208 62.0123 11.9341 62.0123 13.2675V18.1955C62.0123 19.5395 61.7349 20.5741 61.1803 21.2995C60.6256 22.0248 59.7243 22.3875 58.4763 22.3875ZM58.4763 20.9635C59.1483 20.9635 59.6016 20.7661 59.8363 20.3715C60.0709 19.9768 60.1883 19.3795 60.1883 18.5795V12.8995C60.1883 12.1101 60.0709 11.5288 59.8363 11.1555C59.6016 10.7715 59.1483 10.5795 58.4763 10.5795C57.7936 10.5795 57.3349 10.7715 57.1003 11.1555C56.8656 11.5288 56.7483 12.1101 56.7483 12.8995V18.5795C56.7483 19.3795 56.8656 19.9768 57.1003 20.3715C57.3349 20.7661 57.7936 20.9635 58.4763 20.9635ZM65.6933 15.4595L63.0373 9.28347H64.7173L66.6853 13.8595L68.4773 9.28347H70.1573L67.4373 15.6035L70.2853 22.2435H68.6053L66.4933 17.3635L64.6693 22.2435H62.9893L65.6933 15.4595ZM71.348 22.8195C71.636 22.8515 71.8867 22.8675 72.1 22.8675C72.6227 22.8675 72.98 22.7821 73.172 22.6115C73.3747 22.4408 73.476 22.1688 73.476 21.7955C73.476 21.5821 73.4387 21.2515 73.364 20.8035L70.804 9.28347H72.516L73.604 14.8035L74.26 18.9155L74.836 14.8355L75.812 9.28347H77.54L75.22 20.8355L75.092 21.5555C74.9533 22.3128 74.8147 22.8621 74.676 23.2035C74.548 23.5448 74.2973 23.8008 73.924 23.9715C73.5507 24.1528 72.9747 24.2435 72.196 24.2435C72.0573 24.2435 71.7747 24.2328 71.348 24.2115V22.8195ZM77.301 20.9475H77.893C78.2663 20.6381 78.5757 20.2488 78.821 19.7795C79.077 19.3101 79.301 18.5528 79.493 17.5075C79.6957 16.4515 79.8397 14.9901 79.925 13.1235L80.133 9.28347H85.557V20.9475H86.805V24.5955H85.413L85.269 22.2435H78.837L78.693 24.5955H77.301V20.9475ZM83.765 20.9475V10.6275H81.669L81.541 13.5555C81.4663 15.3581 81.3383 16.7448 81.157 17.7155C80.9757 18.6861 80.7677 19.3741 80.533 19.7795C80.2983 20.1741 79.9783 20.5635 79.573 20.9475H83.765ZM88.1643 9.28347H93.1883V10.6275H89.9723V14.9155H92.5803V16.1955H89.9723V20.9475H93.2203V22.2435H88.1643V9.28347ZM94.6799 9.28347H96.4879V14.8835H99.8159V9.28347H101.624V22.2435H99.8159V16.1795H96.4879V22.2435H94.6799V9.28347ZM103.649 9.28347H105.249V18.2595L109.041 9.28347H110.337V22.2435H108.753V13.1235L104.993 22.2435H103.649V9.28347ZM112.367 9.28347H117.391V10.6275H114.175V14.9155H116.783V16.1955H114.175V20.9475H117.423V22.2435H112.367V9.28347Z" fill="#222222"/>
</svg>
