<svg width="137" height="31" fill="none" xmlns="http://www.w3.org/2000/svg"><path d="M29.5 15.274c0 8.039-6.494 14.552-14.5 14.552-8.007 0-14.5-6.513-14.5-14.552C.5 7.236 6.993.723 15 .723c8.006 0 14.5 6.513 14.5 14.551Z" stroke="#CDCDCD"/><ellipse cx="15" cy="15.274" rx="6.75" ry="6.773" fill="#68B738"/><path d="M46.008 9.283h7.136v12.96h-1.808V10.58h-3.52v11.664h-1.808V9.284Zm12.468 13.104c-1.27 0-2.181-.357-2.736-1.072-.544-.725-.816-1.77-.816-3.136v-4.911c0-1.345.278-2.363.832-3.057.555-.693 1.462-1.04 2.72-1.04 1.259 0 2.16.352 2.704 1.056.555.694.832 1.707.832 3.04v4.928c0 1.345-.277 2.38-.832 3.104-.554.726-1.456 1.088-2.704 1.088Zm0-1.424c.672 0 1.126-.197 1.36-.591.235-.395.352-.992.352-1.793V12.9c0-.789-.117-1.37-.352-1.743-.234-.385-.688-.577-1.36-.577-.682 0-1.141.192-1.376.576-.234.374-.352.955-.352 1.745v5.68c0 .8.118 1.397.352 1.792.235.394.694.591 1.376.591Zm7.217-5.504-2.656-6.176h1.68l1.968 4.577 1.792-4.577h1.68l-2.72 6.32 2.848 6.64h-1.68l-2.112-4.88-1.824 4.88h-1.68l2.704-6.783Zm5.655 7.36c.288.033.539.049.752.049.523 0 .88-.086 1.072-.256.203-.171.304-.443.304-.816 0-.214-.037-.544-.112-.992l-2.56-11.52h1.712l1.088 5.52.656 4.112.576-4.08.976-5.553h1.728l-2.32 11.553-.128.72c-.139.757-.277 1.306-.416 1.647-.128.342-.379.598-.752.768-.373.182-.95.273-1.728.273-.139 0-.421-.011-.848-.032V22.82Zm5.953-1.871h.592a3.75 3.75 0 0 0 .928-1.169c.256-.469.48-1.226.672-2.271.203-1.056.347-2.518.432-4.384l.208-3.84h5.424v11.664h1.248v3.648h-1.392l-.144-2.352h-6.432l-.144 2.352h-1.392v-3.648Zm6.464 0v-10.32h-2.096l-.128 2.928c-.075 1.802-.203 3.189-.384 4.16-.181.97-.39 1.658-.624 2.063a5.513 5.513 0 0 1-.96 1.169h4.192Zm4.4-11.665h5.023v1.345h-3.216v4.287h2.608v1.28h-2.608v4.753h3.248v1.296h-5.056V9.284Zm6.515 0h1.808v5.6h3.328v-5.6h1.808v12.96h-1.808V16.18h-3.328v6.064H94.68V9.284Zm8.969 0h1.6v8.976l3.792-8.976h1.296v12.96h-1.584v-9.12l-3.76 9.12h-1.344V9.284Zm8.718 0h5.024v1.345h-3.216v4.287h2.608v1.28h-2.608v4.753h3.248v1.296h-5.056V9.284Z" fill="#222"/></svg>